<svg xmlns="http://www.w3.org/2000/svg" width="22.031" height="18" viewBox="0 0 22.031 18">
  <metadata><?xpacket begin="﻿" id="W5M0MpCehiHzreSzNTczkc9d"?>
<x:xmpmeta xmlns:x="adobe:ns:meta/" x:xmptk="Adobe XMP Core 5.6-c140 79.160451, 2017/05/06-01:08:21        ">
   <rdf:RDF xmlns:rdf="http://www.w3.org/1999/02/22-rdf-syntax-ns#">
      <rdf:Description rdf:about=""/>
   </rdf:RDF>
</x:xmpmeta>
                                                                                                    
                                                                                                    
                                                                                                    
                                                                                                    
                                                                                                    
                                                                                                    
                                                                                                    
                                                                                                    
                                                                                                    
                                                                                                    
                                                                                                    
                                                                                                    
                                                                                                    
                                                                                                    
                                                                                                    
                                                                                                    
                                                                                                    
                                                                                                    
                                                                                                    
                                                                                                    
                           
<?xpacket end="w"?></metadata>
<defs>
    <style>
      .cls-1 {
        fill: #fff;
        fill-rule: evenodd;
      }
    </style>
  </defs>
  <path id="Icon" class="cls-1" d="M138.56,756.243a0.8,0.8,0,0,0-1.145,0l-2.874,2.939c-3.56-1.653-7.358-1.249-10.981,1.171a18.562,18.562,0,0,0-4.405,4.16,0.849,0.849,0,0,0,.023,1.01A19.988,19.988,0,0,0,123.964,770l-2.528,2.586a0.846,0.846,0,0,0,0,1.171,0.79,0.79,0,0,0,1.14,0l15.984-16.343A0.846,0.846,0,0,0,138.56,756.243ZM128,765.872a2.187,2.187,0,0,1-.175-0.872,2.236,2.236,0,0,1,.637-1.575,2.143,2.143,0,0,1,2.393-.473Zm4.05-4.137a3.735,3.735,0,0,0-4.728.519,3.942,3.942,0,0,0-.507,4.835l-1.666,1.7a17.128,17.128,0,0,1-4.292-3.807,17.436,17.436,0,0,1,3.587-3.251c2.99-1.993,5.967-2.425,8.867-1.29Zm8.772,2.741a21.894,21.894,0,0,0-3.425-3.5,0.805,0.805,0,0,0-1.141.142,0.844,0.844,0,0,0,.14,1.162,19.514,19.514,0,0,1,2.747,2.732,17.9,17.9,0,0,1-2.963,2.815c-2.7,2.006-5.423,2.732-8.095,2.153a0.807,0.807,0,0,0-.956.639,0.824,0.824,0,0,0,.624.978,9.878,9.878,0,0,0,2.1.225,10.455,10.455,0,0,0,3.192-.51,14.13,14.13,0,0,0,4.126-2.181,18.773,18.773,0,0,0,3.673-3.642A0.849,0.849,0,0,0,140.822,764.476Z" transform="translate(-119 -756)"/>
</svg>
