<svg xmlns="http://www.w3.org/2000/svg" width="18" height="14" viewBox="0 0 18 14">
  <metadata><?xpacket begin="﻿" id="W5M0MpCehiHzreSzNTczkc9d"?>
<x:xmpmeta xmlns:x="adobe:ns:meta/" x:xmptk="Adobe XMP Core 5.6-c140 79.160451, 2017/05/06-01:08:21        ">
   <rdf:RDF xmlns:rdf="http://www.w3.org/1999/02/22-rdf-syntax-ns#">
      <rdf:Description rdf:about=""/>
   </rdf:RDF>
</x:xmpmeta>
                                                                                                    
                                                                                                    
                                                                                                    
                                                                                                    
                                                                                                    
                                                                                                    
                                                                                                    
                                                                                                    
                                                                                                    
                                                                                                    
                                                                                                    
                                                                                                    
                                                                                                    
                                                                                                    
                                                                                                    
                                                                                                    
                                                                                                    
                                                                                                    
                                                                                                    
                                                                                                    
                           
<?xpacket end="w"?></metadata>
<defs>
    <style>
      .cls-1 {
        fill: #333;
        fill-rule: evenodd;
      }
    </style>
  </defs>
  <path id="Messages" class="cls-1" d="M187.832,40H174.167A2.208,2.208,0,0,1,172,37.757V28.243A2.208,2.208,0,0,1,174.167,26h13.665A2.208,2.208,0,0,1,190,28.243v9.514A2.208,2.208,0,0,1,187.832,40ZM174.25,27.556a0.723,0.723,0,0,0-.75.778v9.333a0.724,0.724,0,0,0,.75.778h13.5a0.724,0.724,0,0,0,.75-0.778V28.333a0.723,0.723,0,0,0-.75-0.778h-13.5Zm6.881,7.167a0.666,0.666,0,0,1-.506-0.235,0.718,0.718,0,0,1,.057-0.988l7.616-7a0.662,0.662,0,0,1,.955.059,0.718,0.718,0,0,1-.057.988l-7.616,7A0.662,0.662,0,0,1,181.131,34.723Zm-0.131,0a0.662,0.662,0,0,1-.449-0.176l-7.616-7a0.717,0.717,0,0,1-.057-0.988,0.661,0.661,0,0,1,.954-0.059l7.617,7a0.718,0.718,0,0,1,.057.988A0.666,0.666,0,0,1,181,34.723Z" transform="translate(-172 -26)"/>
</svg>
