<svg xmlns="http://www.w3.org/2000/svg" xmlns:xlink="http://www.w3.org/1999/xlink" width="17" height="18" viewBox="0 0 17 18">
  <metadata><?xpacket begin="﻿" id="W5M0MpCehiHzreSzNTczkc9d"?>
<x:xmpmeta xmlns:x="adobe:ns:meta/" x:xmptk="Adobe XMP Core 5.6-c140 79.160451, 2017/05/06-01:08:21        ">
   <rdf:RDF xmlns:rdf="http://www.w3.org/1999/02/22-rdf-syntax-ns#">
      <rdf:Description rdf:about=""/>
   </rdf:RDF>
</x:xmpmeta>
                                                                                                    
                                                                                                    
                                                                                                    
                                                                                                    
                                                                                                    
                                                                                                    
                                                                                                    
                                                                                                    
                                                                                                    
                                                                                                    
                                                                                                    
                                                                                                    
                                                                                                    
                                                                                                    
                                                                                                    
                                                                                                    
                                                                                                    
                                                                                                    
                                                                                                    
                                                                                                    
                           
<?xpacket end="w"?></metadata>
<defs>
    <style>
      .cls-1 {
        fill: #aaa;
        fill-rule: evenodd;
        filter: url(#filter);
      }
    </style>
    <filter id="filter" x="1340" y="103" width="17" height="18" filterUnits="userSpaceOnUse">
      <feFlood result="flood" flood-color="#b2b2b2"/>
      <feComposite result="composite" operator="in" in2="SourceGraphic"/>
      <feBlend result="blend" in2="SourceGraphic"/>
    </filter>
  </defs>
  <path id="Icon" class="cls-1" d="M1352.57,112.9a7.064,7.064,0,0,0,1.03-3.712c0-3.417-2.28-6.187-5.1-6.187s-5.1,2.77-5.1,6.187a7.064,7.064,0,0,0,1.03,3.712,7.23,7.23,0,0,0-4.43,6.413v0.563a1.13,1.13,0,0,0,1.13,1.125h14.74a1.13,1.13,0,0,0,1.13-1.125v-0.563A7.229,7.229,0,0,0,1352.57,112.9Zm-4.07-8.212c1.84,0,3.4,2.061,3.4,4.5s-1.56,4.5-3.4,4.5-3.4-2.06-3.4-4.5S1346.66,104.687,1348.5,104.687Zm-6.8,14.625a5.658,5.658,0,0,1,3.86-5.07,4.381,4.381,0,0,0,5.88,0,5.658,5.658,0,0,1,3.86,5.07h-13.6Z" transform="translate(-1340 -103)"/>
</svg>
