<?xml version="1.0" encoding="UTF-8" standalone="no"?>
<svg
   xmlns:dc="http://purl.org/dc/elements/1.1/"
   xmlns:cc="http://creativecommons.org/ns#"
   xmlns:rdf="http://www.w3.org/1999/02/22-rdf-syntax-ns#"
   xmlns:svg="http://www.w3.org/2000/svg"
   xmlns="http://www.w3.org/2000/svg"
   xmlns:sodipodi="http://sodipodi.sourceforge.net/DTD/sodipodi-0.dtd"
   xmlns:inkscape="http://www.inkscape.org/namespaces/inkscape"
   id="Слой_1"
   data-name="Слой 1"
   viewBox="0 0 19.799999 25.000019"
   version="1.1"
   inkscape:version="0.91 r13725"
   sodipodi:docname="document1.svg"
   width="19.799999"
   height="25.000019">
  <metadata
     id="metadata13">
    <rdf:RDF>
      <cc:Work
         rdf:about="">
        <dc:format>image/svg+xml</dc:format>
        <dc:type
           rdf:resource="http://purl.org/dc/dcmitype/StillImage" />
        <dc:title>document</dc:title>
      </cc:Work>
    </rdf:RDF>
  </metadata>
  <defs
     id="defs11" />
  <sodipodi:namedview
     pagecolor="#ffffff"
     bordercolor="#666666"
     borderopacity="1"
     objecttolerance="10"
     gridtolerance="10"
     guidetolerance="10"
     inkscape:pageopacity="0"
     inkscape:pageshadow="2"
     inkscape:window-width="853"
     inkscape:window-height="480"
     id="namedview9"
     showgrid="false"
     fit-margin-left="-0.2"
     fit-margin-top="0"
     fit-margin-right="0"
     fit-margin-bottom="0"
     inkscape:zoom="3.2054329"
     inkscape:cx="18.123937"
     inkscape:cy="-5.9189707"
     inkscape:window-x="355"
     inkscape:window-y="203"
     inkscape:window-maximized="0"
     inkscape:current-layer="Слой_1" />
  <title
     id="title3">document</title>
  <g
     id="_Group_"
     data-name="&lt;Group&gt;"
     transform="translate(-256.2,-231.99998)">
    <path
       id="_Compound_Path_"
       data-name="&lt;Compound Path&gt;"
       d="m 272.09,257 -12.18,0 c -2.07,0 -3.91,-2.37 -3.91,-4.24 l 0,-16.52 c 0,-1.87 1.84,-4.24 3.91,-4.24 l 8.18,0 a 1,1 0 0 1 0.73,0.31 l 6.9,7.19 a 1,1 0 0 1 0.28,0.69 l 0,12.57 c 0,1.87 -1.84,4.24 -3.91,4.24 z m -12.18,-23 c -0.82,0 -1.91,1.28 -1.91,2.24 l 0,16.52 c 0,1 1.09,2.24 1.91,2.24 l 12.18,0 c 0.82,0 1.91,-1.28 1.91,-2.24 l 0,-12.17 -6.33,-6.59 z"
       inkscape:connector-curvature="0" />
  </g>
  <g
     id="_Group_2"
     data-name="&lt;Group&gt;"
     transform="translate(-256.2,-231.99998)">
    <path
       id="_Path_"
       data-name="&lt;Path&gt;"
       d="m 274,241 -4.52,0 c -1.65,0 -2.48,-0.72 -2.48,-2.15 l 0,-4.85 a 1,1 0 0 1 2,0 l 0,4.85 a 0.41,0.41 0 0 0 0,0.12 3.17,3.17 0 0 0 0.47,0 l 4.53,0 a 1,1 0 0 1 0,2 z"
       inkscape:connector-curvature="0" />
  </g>
</svg>
