<svg xmlns="http://www.w3.org/2000/svg" width="16" height="18" viewBox="0 0 16 18">
  <metadata><?xpacket begin="﻿" id="W5M0MpCehiHzreSzNTczkc9d"?>
<x:xmpmeta xmlns:x="adobe:ns:meta/" x:xmptk="Adobe XMP Core 5.6-c140 79.160451, 2017/05/06-01:08:21        ">
   <rdf:RDF xmlns:rdf="http://www.w3.org/1999/02/22-rdf-syntax-ns#">
      <rdf:Description rdf:about=""/>
   </rdf:RDF>
</x:xmpmeta>
                                                                                                    
                                                                                                    
                                                                                                    
                                                                                                    
                                                                                                    
                                                                                                    
                                                                                                    
                                                                                                    
                                                                                                    
                                                                                                    
                                                                                                    
                                                                                                    
                                                                                                    
                                                                                                    
                                                                                                    
                                                                                                    
                                                                                                    
                                                                                                    
                                                                                                    
                                                                                                    
                           
<?xpacket end="w"?></metadata>
<defs>
    <style>
      .cls-1 {
        fill: #fff;
        fill-rule: evenodd;
      }
    </style>
  </defs>
  <path id="Icon" class="cls-1" d="M217.656,760.417a0.686,0.686,0,0,0-.966,0,0.677,0.677,0,0,0,0,.961,6.574,6.574,0,0,1,0,9.334,6.617,6.617,0,0,1-9.384-9.333,0.677,0.677,0,0,0,0-.961,0.686,0.686,0,0,0-.966,0A8,8,0,1,0,217.656,760.417ZM212,764.8a0.681,0.681,0,0,0,.683-0.679v-7.443a0.683,0.683,0,0,0-1.366,0v7.443A0.681,0.681,0,0,0,212,764.8Z" transform="translate(-204 -756)"/>
</svg>
