<svg xmlns="http://www.w3.org/2000/svg" xmlns:xlink="http://www.w3.org/1999/xlink" width="18" height="18" viewBox="0 0 18 18">
  <metadata><?xpacket begin="﻿" id="W5M0MpCehiHzreSzNTczkc9d"?>
<x:xmpmeta xmlns:x="adobe:ns:meta/" x:xmptk="Adobe XMP Core 5.6-c140 79.160451, 2017/05/06-01:08:21        ">
   <rdf:RDF xmlns:rdf="http://www.w3.org/1999/02/22-rdf-syntax-ns#">
      <rdf:Description rdf:about=""/>
   </rdf:RDF>
</x:xmpmeta>
                                                                                                    
                                                                                                    
                                                                                                    
                                                                                                    
                                                                                                    
                                                                                                    
                                                                                                    
                                                                                                    
                                                                                                    
                                                                                                    
                                                                                                    
                                                                                                    
                                                                                                    
                                                                                                    
                                                                                                    
                                                                                                    
                                                                                                    
                                                                                                    
                                                                                                    
                                                                                                    
                           
<?xpacket end="w"?></metadata>
<defs>
    <style>
      .cls-1 {
        fill: #aaa;
        fill-rule: evenodd;
        filter: url(#filter);
      }
    </style>
    <filter id="filter" x="1435" y="103" width="18" height="18" filterUnits="userSpaceOnUse">
      <feFlood result="flood" flood-color="#b2b2b2"/>
      <feComposite result="composite" operator="in" in2="SourceGraphic"/>
      <feBlend result="blend" in2="SourceGraphic"/>
    </filter>
  </defs>
  <path id="Icon" class="cls-1" d="M1451.88,113.125h-0.66a7.415,7.415,0,0,1-1.32,3.184l0.52,0.52a1.125,1.125,0,0,1-1.59,1.591l-0.52-.521a7.271,7.271,0,0,1-3.19,1.318v0.658a1.12,1.12,0,1,1-2.24,0v-0.658a7.271,7.271,0,0,1-3.19-1.318l-0.52.521a1.125,1.125,0,1,1-1.59-1.591l0.52-.52a7.415,7.415,0,0,1-1.32-3.184h-0.65a1.125,1.125,0,1,1,0-2.25h0.65a7.405,7.405,0,0,1,1.32-3.183l-0.52-.522a1.125,1.125,0,1,1,1.59-1.591l0.52,0.522a7.271,7.271,0,0,1,3.19-1.318v-0.658a1.12,1.12,0,1,1,2.24,0v0.658a7.27,7.27,0,0,1,3.19,1.317l0.52-.521a1.125,1.125,0,1,1,1.59,1.591l-0.52.521a7.415,7.415,0,0,1,1.32,3.184h0.66A1.125,1.125,0,0,1,1451.88,113.125Zm-7.88-6.75a5.625,5.625,0,1,0,5.63,5.625A5.628,5.628,0,0,0,1444,106.375Zm0,9a3.375,3.375,0,1,1,3.38-3.375A3.373,3.373,0,0,1,1444,115.375Zm0-5.063a1.688,1.688,0,1,0,1.69,1.688A1.692,1.692,0,0,0,1444,110.312Z" transform="translate(-1435 -103)"/>
</svg>
