<svg xmlns="http://www.w3.org/2000/svg" width="18" height="18" viewBox="0 0 18 18">
  <metadata><?xpacket begin="﻿" id="W5M0MpCehiHzreSzNTczkc9d"?>
<x:xmpmeta xmlns:x="adobe:ns:meta/" x:xmptk="Adobe XMP Core 5.6-c140 79.160451, 2017/05/06-01:08:21        ">
   <rdf:RDF xmlns:rdf="http://www.w3.org/1999/02/22-rdf-syntax-ns#">
      <rdf:Description rdf:about=""/>
   </rdf:RDF>
</x:xmpmeta>
                                                                                                    
                                                                                                    
                                                                                                    
                                                                                                    
                                                                                                    
                                                                                                    
                                                                                                    
                                                                                                    
                                                                                                    
                                                                                                    
                                                                                                    
                                                                                                    
                                                                                                    
                                                                                                    
                                                                                                    
                                                                                                    
                                                                                                    
                                                                                                    
                                                                                                    
                                                                                                    
                           
<?xpacket end="w"?></metadata>
<defs>
    <style>
      .cls-1 {
        fill: #fff;
        fill-rule: evenodd;
      }
    </style>
  </defs>
  <path id="Icon" class="cls-1" d="M57.486,762.96l-2.174-.269q-0.1-.265-0.216-0.522l1.347-1.728a0.586,0.586,0,0,0-.048-0.775l-2.062-2.061a0.586,0.586,0,0,0-.775-0.047l-1.727,1.347q-0.257-.12-0.523-0.217l-0.269-2.174A0.587,0.587,0,0,0,50.457,756H47.542a0.587,0.587,0,0,0-.582.514l-0.269,2.174q-0.266.1-.523,0.217l-1.727-1.348a0.586,0.586,0,0,0-.775.048l-2.061,2.061a0.586,0.586,0,0,0-.048.775l1.347,1.727c-0.079.171-.152,0.346-0.217,0.523l-2.174.269a0.587,0.587,0,0,0-.514.582v2.916a0.586,0.586,0,0,0,.514.581l2.174,0.269c0.065,0.177.137,0.352,0.216,0.523l-1.347,1.727a0.587,0.587,0,0,0,.048.775l2.062,2.062a0.586,0.586,0,0,0,.775.047l1.727-1.347q0.256,0.118.523,0.216l0.269,2.175a0.587,0.587,0,0,0,.582.514h2.915a0.586,0.586,0,0,0,.582-0.514l0.269-2.175q0.266-.1.523-0.216l1.727,1.347a0.586,0.586,0,0,0,.775-0.047l2.061-2.062a0.586,0.586,0,0,0,.048-0.775L55.1,767.831c0.079-.171.152-0.346,0.216-0.523l2.174-.269A0.586,0.586,0,0,0,58,766.458v-2.916A0.587,0.587,0,0,0,57.486,762.96Zm-0.658,2.979-2.027.251a0.585,0.585,0,0,0-.489.412,5.535,5.535,0,0,1-.422,1.02,0.586,0.586,0,0,0,.054.638l1.256,1.61L53.871,771.2l-1.61-1.256a0.585,0.585,0,0,0-.638-0.054,5.573,5.573,0,0,1-1.02.422,0.586,0.586,0,0,0-.412.489l-0.251,2.028H48.06L47.81,770.8a0.586,0.586,0,0,0-.412-0.489,5.512,5.512,0,0,1-1.02-.422,0.586,0.586,0,0,0-.638.054L44.13,771.2,42.8,769.87l1.256-1.61a0.586,0.586,0,0,0,.054-0.638,5.519,5.519,0,0,1-.422-1.02,0.585,0.585,0,0,0-.489-0.412l-2.027-.251V764.06l2.027-.251a0.585,0.585,0,0,0,.489-0.412,5.513,5.513,0,0,1,.422-1.02,0.586,0.586,0,0,0-.054-0.638l-1.256-1.61,1.329-1.329,1.61,1.256a0.586,0.586,0,0,0,.638.054,5.544,5.544,0,0,1,1.02-.422,0.586,0.586,0,0,0,.412-0.489l0.251-2.027h1.879L50.19,759.2a0.585,0.585,0,0,0,.413.489,5.538,5.538,0,0,1,1.02.423,0.588,0.588,0,0,0,.638-0.055l1.61-1.255,1.329,1.328-1.256,1.61a0.587,0.587,0,0,0-.054.638,5.543,5.543,0,0,1,.422,1.02,0.588,0.588,0,0,0,.489.413l2.027,0.25v1.879h0ZM49,761.347A3.653,3.653,0,1,0,52.653,765,3.657,3.657,0,0,0,49,761.347Zm0,6.134A2.481,2.481,0,1,1,51.481,765,2.484,2.484,0,0,1,49,767.481Z" transform="translate(-40 -756)"/>
</svg>
