<?xml version="1.0" standalone="no"?>
<!DOCTYPE svg PUBLIC "-//W3C//DTD SVG 20010904//EN"
 "http://www.w3.org/TR/2001/REC-SVG-20010904/DTD/svg10.dtd">
<svg version="1.0" xmlns="http://www.w3.org/2000/svg"
 width="254.000000pt" height="254.000000pt" viewBox="0 0 254.000000 254.000000"
 preserveAspectRatio="xMidYMid meet">
<metadata>
Created by potrace 1.11, written by Peter Selinger 2001-2013
</metadata>
<g transform="translate(0.000000,254.000000) scale(0.100000,-0.100000)"
fill="#000000" stroke="none">
<path d="M1176 2509 c2 -4 -4 -7 -13 -7 -26 2 -112 -11 -158 -24 -22 -6 -44
-11 -50 -13 -129 -29 -323 -126 -443 -222 -159 -126 -307 -321 -374 -493 -14
-36 -29 -74 -33 -85 -10 -24 -9 -20 -23 -70 -16 -56 -30 -136 -36 -196 -2 -20
-5 -40 -8 -45 -2 -5 -6 -44 -7 -86 -1 -57 1 -78 11 -78 9 0 9 -3 1 -11 -7 -7
-8 -18 -3 -28 4 -9 13 -52 20 -96 14 -93 64 -247 110 -337 108 -213 262 -379
473 -512 31 -20 59 -36 62 -36 2 0 32 -13 67 -29 63 -29 165 -66 209 -75 13
-3 34 -7 46 -10 11 -2 43 -8 70 -12 26 -3 56 -11 67 -16 13 -7 16 -7 12 1 -8
12 7 15 18 3 12 -11 166 -11 166 1 0 5 8 3 17 -4 9 -8 14 -9 10 -3 -4 7 14 13
56 17 34 4 73 9 87 12 51 10 175 49 185 57 5 4 15 8 23 8 13 0 94 38 167 80
77 43 169 114 243 187 l75 74 -229 230 c-126 126 -233 228 -239 227 -5 -2 -37
-31 -69 -66 l-60 -63 148 -148 148 -148 -84 -56 c-67 -45 -159 -94 -188 -102
-17 -4 -87 -29 -95 -33 -5 -3 -16 -7 -25 -8 -8 -1 -28 -4 -45 -8 -130 -29
-323 -25 -446 9 -30 8 -61 17 -69 19 -88 24 -244 109 -328 180 -228 192 -360
467 -366 761 -9 429 271 825 682 966 45 15 82 26 82 24 0 -3 12 0 26 5 34 13
132 24 219 23 149 -1 294 -32 415 -91 30 -15 78 -41 107 -59 l52 -32 75 82
c42 45 76 87 76 92 0 18 -138 99 -263 154 -56 25 -209 67 -282 76 -27 4 -61
10 -75 12 -41 9 -219 10 -214 2z"/>
<path d="M2060 2213 c0 -5 -33 -42 -73 -84 -39 -42 -98 -104 -129 -138 l-57
-60 -29 24 c-46 38 -170 101 -247 125 -196 60 -440 39 -619 -52 -232 -118
-406 -352 -450 -605 -13 -76 -14 -232 -1 -303 55 -320 314 -603 615 -671 129
-30 309 -30 423 0 84 22 207 76 245 107 l24 20 -92 92 -92 92 -67 -30 c-294
-129 -652 22 -761 321 -41 112 -47 247 -16 384 33 152 182 321 333 379 136 53
312 51 437 -5 62 -27 156 -99 206 -156 l43 -50 148 149 c82 82 153 147 159
143 20 -13 94 -130 130 -209 32 -69 55 -140 75 -230 50 -223 -13 -539 -144
-730 -17 -24 -31 -47 -31 -49 0 -9 158 -167 167 -167 12 0 106 145 142 220 23
48 70 172 76 200 1 3 9 39 18 80 10 41 19 96 21 121 2 26 6 51 8 55 8 15 1
166 -11 249 -11 78 -54 251 -70 284 -5 9 -30 59 -56 112 -55 114 -147 239
-238 327 -60 57 -87 74 -87 55z"/>
</g>
</svg>
